<svg xmlns="http://www.w3.org/2000/svg" width="1024" height="1024" viewBox="0 0 1024 1024">
<g>
<path d="M 773.26 822.75 C770.73,824.40 756.66,824.51 516.04,824.63 C376.04,824.70 259.02,824.42 256.00,824.01 C249.34,823.11 236.88,820.05 235.50,818.98 C233.82,817.68 223.81,815.00 222.85,815.59 C222.36,815.90 222.07,815.55 222.23,814.82 C222.39,814.03 221.62,813.53 220.30,813.57 C219.08,813.62 218.37,813.20 218.71,812.65 C219.08,812.07 218.65,811.92 217.68,812.29 C216.72,812.66 216.12,812.47 216.26,811.84 C216.39,811.24 214.57,809.72 212.22,808.44 C209.86,807.17 205.71,804.27 202.99,801.99 C200.11,799.58 197.56,798.16 196.87,798.58 C196.15,799.02 195.96,798.88 196.37,798.21 C196.74,797.60 193.93,793.91 190.02,789.88 C186.16,785.90 183.00,782.27 183.00,781.81 C183.00,781.36 181.52,778.85 179.71,776.24 C173.92,767.91 167.00,752.53 167.00,748.00 C167.00,746.48 166.31,743.60 165.47,741.58 C164.63,739.57 163.54,734.68 163.05,730.71 C162.57,726.75 162.05,617.97 161.90,489.00 L 161.64 254.50 L 163.81 248.63 C165.00,245.41 165.75,242.40 165.47,241.95 C164.54,240.45 173.65,219.00 175.21,219.00 C175.64,219.00 176.00,218.17 176.00,217.15 C176.00,216.14 176.90,214.50 178.00,213.50 C179.10,212.50 180.00,211.10 180.00,210.38 C180.00,209.66 180.91,208.58 182.03,207.99 C183.14,207.39 183.82,206.52 183.54,206.06 C183.25,205.60 184.13,204.49 185.49,203.60 C186.85,202.71 188.65,200.64 189.50,198.99 C190.36,197.35 191.50,196.00 192.04,196.00 C192.59,196.00 196.68,192.85 201.14,189.00 C205.59,185.15 209.86,182.00 210.62,182.00 C211.38,182.00 212.00,181.55 212.00,181.00 C212.00,180.45 212.43,180.00 212.96,180.00 C213.48,180.00 216.97,178.60 220.71,176.89 C233.30,171.13 238.64,169.34 247.98,167.77 C252.56,166.99 329.53,166.56 507.00,166.32 C518.93,166.30 530.33,166.29 541.23,166.27 C758.54,165.96 773.44,165.94 786.86,170.39 C788.52,170.94 790.15,171.56 792.15,172.25 C797.29,174.05 806.00,177.98 811.50,181.00 C819.64,185.47 823.47,188.44 832.09,196.99 C847.51,212.29 855.93,227.23 861.24,248.70 L 863.42 257.50 L 863.73 490.32 C863.92,629.26 863.68,722.58 863.14,722.59 L 863.14 722.59 C862.64,722.28 861.92,725.06 861.53,728.76 C861.15,732.47 859.92,739.10 858.81,743.50 C856.89,751.08 851.22,766.92 850.04,768.00 C849.26,768.72 841.73,779.87 840.28,782.46 C839.11,784.56 825.41,797.69 818.73,803.13 C816.95,804.57 812.35,807.42 808.50,809.46 C804.65,811.50 800.79,813.80 799.92,814.58 C799.05,815.36 797.44,816.00 796.34,816.00 C795.24,816.00 794.02,816.32 793.63,816.70 C792.46,817.87 781.68,820.97 778.71,820.99 C777.18,820.99 774.73,821.79 773.26,822.75 ZM 353.96 529.17 C358.83,531.12 365.68,531.10 376.00,529.10 C382.59,527.83 397.75,525.85 422.25,523.06 C436.00,521.50 484.02,519.60 509.50,519.62 C530.75,519.63 575.72,521.26 589.50,522.51 C592.25,522.76 600.80,523.46 608.50,524.06 C616.20,524.66 623.40,525.54 624.50,526.02 C625.60,526.50 629.88,527.14 634.00,527.43 C638.12,527.73 645.33,528.48 650.00,529.10 C663.36,530.87 668.02,530.65 673.53,527.99 C679.30,525.19 683.01,521.82 685.61,517.00 C687.40,513.69 687.48,511.02 687.20,467.50 C687.04,442.20 686.48,416.33 685.97,410.00 C685.46,403.67 684.83,392.20 684.57,384.50 C684.31,376.80 683.77,368.92 683.36,367.00 C682.96,365.08 682.56,360.35 682.48,356.50 C682.40,352.65 682.08,346.12 681.77,342.00 C680.68,327.59 678.95,298.40 678.43,285.50 C678.14,278.35 677.48,272.08 676.95,271.55 C676.43,271.03 676.00,269.84 676.00,268.92 C676.00,268.00 674.84,264.72 673.43,261.63 C670.32,254.83 662.64,248.70 650.61,243.39 C634.73,236.39 606.02,231.06 566.50,227.79 C546.73,226.15 474.03,226.18 455.50,227.83 C391.00,233.59 358.41,244.20 349.54,262.32 C349.26,262.90 349.01,263.33 348.79,263.78 C346.78,267.74 346.64,272.65 340.26,391.50 C339.15,412.33 338.54,439.38 338.52,469.00 L 338.50 514.50 L 341.13 518.50 C344.60,523.77 348.42,526.95 353.96,529.17 ZM 529.50 421.56 C516.13,423.10 511.17,423.56 510.38,423.29 C509.90,423.13 505.23,422.60 500.00,422.11 C494.77,421.61 487.80,420.45 484.50,419.53 C481.20,418.61 477.75,417.79 476.82,417.71 C475.90,417.63 475.37,417.22 475.63,416.79 C475.90,416.35 475.17,416.00 474.01,416.00 C472.85,416.00 470.57,415.31 468.95,414.48 C467.33,413.64 464.32,413.03 462.25,413.12 C458.47,413.30 449.50,411.07 427.50,404.49 C420.90,402.52 412.35,400.08 408.50,399.06 C404.65,398.05 399.48,396.54 397.00,395.71 C394.52,394.88 388.00,392.82 382.50,391.14 C372.69,388.13 364.24,383.04 365.55,380.92 C365.86,380.41 365.69,380.00 365.17,380.00 C363.86,380.00 363.66,356.59 364.93,352.66 C365.49,350.92 366.16,340.95 366.43,330.50 C367.15,301.84 367.89,294.13 370.05,292.97 C371.04,292.45 372.55,291.31 373.41,290.45 C374.27,289.59 377.12,288.49 379.74,288.01 C382.36,287.53 386.52,286.63 389.00,286.01 C395.93,284.26 420.44,281.53 442.50,280.04 C450.75,279.49 459.08,278.81 461.00,278.53 C468.07,277.53 558.46,277.91 561.99,278.96 C563.91,279.53 570.54,280.00 576.72,280.00 C582.91,280.00 591.01,280.44 594.73,280.98 C598.45,281.51 606.67,282.47 613.00,283.09 C636.35,285.41 652.13,289.68 653.52,294.07 C653.86,295.13 654.49,296.00 654.91,296.00 C655.34,296.00 655.97,301.06 656.31,307.25 C656.65,313.44 657.65,331.55 658.54,347.50 L 660.16 376.50 L 657.91 380.65 C655.58,384.92 652.78,386.78 643.50,390.18 C635.04,393.28 620.78,397.74 615.00,399.09 C611.97,399.80 609.02,400.73 608.44,401.15 C606.63,402.48 580.86,409.07 573.50,410.09 C569.65,410.62 566.04,411.66 565.48,412.40 C564.92,413.14 562.45,414.08 559.98,414.49 C557.52,414.90 553.92,415.85 552.00,416.59 C548.09,418.10 535.63,420.85 529.50,421.56 ZM 427.62 781.71 C428.65,782.47 430.40,782.86 431.50,782.56 C432.60,782.27 453.08,781.99 477.00,781.94 C500.92,781.90 519.60,781.50 518.50,781.06 C517.35,780.60 519.49,780.45 523.50,780.71 C529.29,781.08 532.31,780.61 541.00,778.02 C546.78,776.29 551.95,774.79 552.50,774.67 C554.77,774.17 565.01,765.82 564.45,764.92 C564.12,764.39 564.45,764.07 565.18,764.23 C565.90,764.38 566.38,763.90 566.23,763.18 C566.07,762.45 566.36,762.11 566.86,762.42 C568.26,763.28 574.33,755.17 576.91,749.00 C579.24,743.40 581.21,726.75 580.26,720.54 C579.29,714.12 576.15,706.11 572.91,701.76 C569.28,696.90 564.80,693.58 563.48,694.78 C563.04,695.17 563.01,694.93 563.40,694.24 C563.87,693.44 563.02,692.35 561.07,691.24 C559.39,690.28 558.01,689.24 558.01,688.92 C558.00,688.60 560.27,686.87 563.04,685.07 C570.99,679.92 577.16,672.92 580.45,665.32 C583.11,659.20 583.41,657.42 583.42,647.96 C583.42,637.66 583.34,637.25 579.46,629.59 C573.40,617.60 565.77,611.96 548.00,606.35 C543.20,604.84 536.69,604.57 496.75,604.24 C457.63,603.91 450.79,604.07 449.54,605.32 C448.60,606.26 447.93,609.56 447.66,614.64 C447.42,618.96 446.99,623.17 446.68,624.00 C445.67,626.76 442.85,647.03 438.90,680.00 C438.35,684.67 437.25,692.55 436.47,697.50 C435.69,702.45 434.58,711.45 433.99,717.50 C433.41,723.55 432.45,731.32 431.86,734.76 C431.27,738.20 430.96,742.78 431.16,744.92 C431.37,747.07 431.28,748.67 430.96,748.48 C430.64,748.28 429.34,755.37 428.06,764.23 C425.79,779.96 425.78,780.36 427.62,781.71 ZM 415.00 610.89 C421.22,613.19 423.00,613.44 423.00,612.00 C423.00,611.45 423.65,611.00 424.45,611.00 C425.25,611.00 426.26,610.44 426.70,609.75 C427.14,609.06 428.70,607.83 430.16,607.00 C431.62,606.17 437.92,602.06 444.16,597.85 C450.40,593.64 460.90,587.37 467.50,583.91 C474.10,580.45 479.77,577.23 480.09,576.76 C480.42,576.28 481.09,576.01 481.59,576.16 C483.02,576.58 492.00,572.83 492.00,571.82 C492.00,571.32 492.56,571.00 493.25,571.11 C493.94,571.22 495.17,571.05 496.00,570.73 C496.83,570.41 499.19,569.63 501.25,569.00 C503.31,568.36 505.00,567.46 505.00,566.98 C505.00,566.51 505.79,566.18 506.75,566.24 C509.12,566.40 522.34,561.95 523.14,560.72 C523.49,560.18 524.27,560.05 524.87,560.42 C525.47,560.79 526.98,560.52 528.23,559.82 C529.48,559.13 531.40,558.49 532.50,558.41 C533.60,558.33 541.25,556.85 549.50,555.14 C557.75,553.42 565.51,552.01 566.75,552.01 C567.99,552.00 569.00,551.64 569.00,551.20 C569.00,550.76 571.14,550.38 573.75,550.36 C582.97,550.28 586.11,549.99 585.65,549.25 C585.40,548.84 599.66,548.86 617.34,549.30 C660.45,550.38 660.87,550.40 660.38,551.20 C659.73,552.24 666.61,553.31 669.41,552.61 C670.79,552.27 671.99,552.47 672.19,553.08 C672.61,554.34 685.28,556.91 688.98,556.49 C690.37,556.33 691.95,556.55 692.50,556.97 C694.17,558.26 706.22,560.98 707.30,560.32 C707.86,559.97 708.00,560.19 707.61,560.82 C706.79,562.15 711.24,563.50 713.55,562.62 C714.40,562.29 714.87,562.40 714.58,562.87 C713.72,564.27 718.80,566.00 723.77,566.00 C727.97,566.00 728.25,565.87 726.47,564.68 C725.39,563.95 722.92,562.79 721.00,562.09 C719.08,561.39 716.38,560.25 715.00,559.54 C713.62,558.83 710.70,557.72 708.50,557.06 C706.30,556.40 703.60,555.44 702.50,554.93 C699.08,553.35 685.61,549.31 677.37,547.40 C673.04,546.40 669.28,545.30 669.00,544.95 C667.78,543.42 645.79,539.67 637.50,539.59 C632.55,539.54 628.18,539.05 627.79,538.50 C627.34,537.87 614.67,537.50 593.29,537.50 C567.18,537.50 555.75,537.92 543.00,539.33 C523.81,541.47 521.77,541.81 522.35,542.78 C522.59,543.18 520.52,543.59 517.74,543.69 C514.96,543.79 512.42,544.30 512.10,544.82 C511.77,545.33 509.70,545.99 507.50,546.27 C505.30,546.55 499.45,547.75 494.50,548.93 C489.55,550.12 483.48,551.52 481.02,552.06 C468.98,554.66 438.60,564.94 424.83,571.08 C418.96,573.69 413.93,575.60 413.64,575.31 C412.91,574.58 393.86,583.97 394.38,584.81 C394.62,585.19 393.72,585.57 392.39,585.65 C391.05,585.73 388.43,586.96 386.55,588.39 C384.67,589.83 381.97,591.44 380.54,591.98 C379.12,592.53 377.68,593.66 377.36,594.50 C376.60,596.48 378.72,599.00 381.15,599.00 C382.20,599.00 385.83,600.16 389.21,601.59 C392.59,603.01 396.29,604.28 397.43,604.41 C398.57,604.53 400.58,605.22 401.89,605.93 C403.20,606.64 405.45,607.58 406.89,608.03 C408.33,608.48 411.98,609.76 415.00,610.89 ZM 348.50 587.73 C351.80,588.83 355.17,589.56 356.00,589.36 C356.83,589.16 364.02,585.62 372.00,581.51 C379.98,577.39 387.03,574.02 387.68,574.01 C388.33,574.00 389.54,573.32 390.38,572.48 C391.21,571.65 392.25,571.07 392.70,571.20 C394.02,571.60 413.00,563.73 413.00,562.79 C413.00,562.31 413.56,562.03 414.25,562.18 C415.95,562.55 448.34,551.88 449.14,550.69 C449.49,550.17 450.19,550.00 450.70,550.32 C451.60,550.87 460.45,548.75 464.50,547.01 C467.06,545.91 471.38,544.96 476.75,544.31 C479.09,544.03 481.00,543.51 481.00,543.15 C481.00,542.79 483.09,542.42 485.65,542.32 C488.20,542.22 490.57,541.72 490.90,541.20 C491.23,540.69 492.40,540.32 493.50,540.38 C496.56,540.56 515.00,537.72 515.00,537.07 C515.01,536.76 518.46,536.40 522.68,536.27 C526.90,536.15 530.61,535.70 530.93,535.27 C531.24,534.85 535.42,534.42 540.20,534.33 C544.99,534.23 549.71,533.66 550.70,533.06 C552.86,531.76 487.57,531.86 466.00,533.20 C442.54,534.65 414.61,537.64 397.00,540.58 C392.33,541.36 387.06,542.00 385.31,542.00 C383.55,542.00 381.84,542.45 381.50,543.00 C381.16,543.55 378.66,544.00 375.96,544.00 C373.25,544.00 369.11,544.45 366.76,544.99 C352.40,548.33 341.17,551.38 339.00,552.54 C337.62,553.27 333.58,554.79 330.00,555.92 C317.16,559.96 308.52,563.08 307.57,564.03 C307.03,564.57 305.64,565.00 304.47,565.00 C303.29,565.00 302.00,565.34 301.58,565.75 C301.17,566.16 299.04,567.20 296.84,568.06 L 292.84 569.63 L 296.67 571.27 C302.80,573.89 340.16,585.02 341.04,584.48 C341.47,584.21 341.98,584.38 342.16,584.86 C342.35,585.34 345.20,586.63 348.50,587.73 ZM 697.13 356.08 C700.14,357.94 715.59,351.17 720.87,345.66 L 724.25 342.15 L 724.15 331.32 C724.09,325.37 724.07,317.23 724.10,313.24 C724.13,309.25 723.69,304.52 723.13,302.74 C722.57,300.96 721.99,298.15 721.85,296.50 C721.54,293.03 719.56,290.33 716.00,288.52 C712.48,286.72 699.87,284.00 695.08,284.00 C691.24,284.00 691.07,284.13 691.51,286.75 C691.76,288.26 692.65,301.42 693.48,316.00 C695.55,352.56 695.80,355.26 697.13,356.08 ZM 319.50 354.69 C321.15,355.35 324.08,355.81 326.00,355.70 L 329.50 355.50 L 329.75 338.10 C329.89,328.53 330.42,320.20 330.93,319.58 C331.98,318.31 332.69,285.35 331.68,284.35 C330.46,283.13 315.09,285.92 310.29,288.22 C302.47,291.98 302.03,293.46 301.33,318.15 C300.59,344.50 300.81,345.31 310.18,350.19 C313.65,352.00 317.85,354.02 319.50,354.69 ZM 522.83 742.04 C518.77,744.23 517.20,744.40 497.62,744.76 L 476.73 745.15 L 477.46 735.32 C477.86,729.92 478.71,721.90 479.35,717.50 L 480.50 709.50 L 500.50 709.50 C523.57,709.50 525.12,709.93 529.65,717.67 C535.00,726.79 532.13,737.03 522.83,742.04 ZM 522.50 672.44 C520.30,672.72 511.81,673.09 503.64,673.28 C486.85,673.67 485.31,673.16 486.44,667.59 C486.79,665.89 487.54,659.78 488.13,654.00 C488.71,648.22 489.65,642.94 490.22,642.25 C491.81,640.32 519.58,640.53 523.36,642.51 C524.94,643.33 527.03,644.00 528.00,644.00 C530.84,644.00 533.75,647.15 535.29,651.89 C536.51,655.62 536.52,656.96 535.36,660.89 C533.63,666.79 528.12,671.74 522.50,672.44 Z" fill="rgb(4,103,222)"/>
<path d="M 520.50 744.88 C518.16,745.53 507.86,745.99 495.75,745.99 C475.31,746.00 475.00,745.97 475.00,743.89 C475.00,741.08 478.98,709.87 479.56,708.16 C479.92,707.08 483.81,706.88 499.25,707.16 C517.43,707.48 518.78,707.64 523.50,710.00 C531.59,714.05 534.97,721.04 533.52,730.73 C532.64,736.61 526.58,743.19 520.50,744.88 ZM 522.83 742.04 C532.13,737.03 535.00,726.79 529.65,717.67 C525.12,709.93 523.57,709.50 500.50,709.50 L 480.50 709.50 L 479.35 717.50 C478.71,721.90 477.86,729.92 477.46,735.32 L 476.73 745.15 L 497.62 744.76 C517.20,744.40 518.77,744.23 522.83,742.04 ZM 521.91 673.92 C519.16,674.52 509.60,675.00 500.67,675.00 L 484.43 675.00 L 488.52 640.50 L 507.01 640.50 C523.71,640.50 525.89,640.70 529.50,642.56 C534.01,644.88 538.00,651.42 538.00,656.50 C538.00,660.92 534.04,668.12 530.21,670.67 C528.41,671.87 524.67,673.33 521.91,673.92 ZM 522.50 672.44 C528.12,671.74 533.63,666.79 535.36,660.89 C536.52,656.96 536.51,655.62 535.29,651.89 C533.75,647.15 530.84,644.00 528.00,644.00 C527.03,644.00 524.94,643.33 523.36,642.51 C519.58,640.53 491.81,640.32 490.22,642.25 C489.65,642.94 488.71,648.22 488.13,654.00 C487.54,659.78 486.79,665.89 486.44,667.59 C485.31,673.16 486.85,673.67 503.64,673.28 C511.81,673.09 520.30,672.72 522.50,672.44 ZM 773.26 822.75 C774.73,821.79 777.18,820.99 778.71,820.99 C781.68,820.97 792.46,817.87 793.63,816.70 C794.02,816.32 795.24,816.00 796.34,816.00 C797.44,816.00 799.05,815.36 799.92,814.58 C800.79,813.80 804.65,811.50 808.50,809.46 C812.35,807.42 816.95,804.57 818.73,803.13 C825.41,797.69 839.11,784.56 840.28,782.46 C841.73,779.87 849.26,768.72 850.04,768.00 C851.22,766.92 856.89,751.08 858.81,743.50 C859.92,739.10 861.15,732.47 861.53,728.76 C861.85,725.66 862.41,723.20 862.88,722.67 C862.60,732.61 862.21,735.40 861.64,738.00 C856.47,761.61 848.49,776.52 832.47,792.50 C815.49,809.42 798.88,818.34 773.50,824.15 L 763.50 826.43 L 515.50 826.63 C315.44,826.78 265.66,826.56 258.00,825.50 C245.27,823.74 233.51,820.38 222.91,815.56 C224.16,815.09 233.85,817.70 235.50,818.98 C236.88,820.05 249.34,823.11 256.00,824.01 C259.02,824.42 376.04,824.70 516.04,824.63 C756.66,824.51 770.73,824.40 773.26,822.75 ZM 353.96 529.17 C348.42,526.95 344.60,523.77 341.13,518.50 L 338.50 514.50 L 338.52 469.00 C338.54,439.38 339.15,412.33 340.26,391.50 C341.39,370.46 342.33,352.99 343.11,338.46 C340.63,387.76 339.50,433.61 339.50,483.50 L 339.50 512.50 L 342.00 516.91 C345.00,522.20 350.61,526.93 355.17,528.01 C360.63,529.30 365.13,529.11 379.16,526.97 C458.57,514.89 552.49,514.90 645.71,527.01 C665.57,529.59 669.90,529.26 676.68,524.69 C682.72,520.63 684.99,516.65 686.02,508.33 C687.15,499.20 684.75,374.56 683.35,366.95 L 683.36 367.00 C683.77,368.92 684.31,376.80 684.57,384.50 C684.83,392.20 685.46,403.67 685.97,410.00 C686.48,416.33 687.04,442.20 687.20,467.50 C687.48,511.02 687.40,513.69 685.61,517.00 C683.01,521.82 679.30,525.19 673.53,527.99 C668.02,530.65 663.36,530.87 650.00,529.10 C645.33,528.48 638.12,527.73 634.00,527.43 C629.88,527.14 625.60,526.50 624.50,526.02 C623.40,525.54 616.20,524.66 608.50,524.06 C600.80,523.46 592.25,522.76 589.50,522.51 C575.72,521.26 530.75,519.63 509.50,519.62 C484.02,519.60 436.00,521.50 422.25,523.06 C397.75,525.85 382.59,527.83 376.00,529.10 C365.68,531.10 358.83,531.12 353.96,529.17 ZM 196.29 798.35 C178.68,782.69 166.89,761.17 162.47,735.24 C161.05,726.93 160.93,701.66 161.25,490.24 L 161.62 254.50 L 163.80 248.63 C164.90,245.66 165.63,242.87 165.51,242.10 C165.63,242.87 164.91,245.66 163.81,248.63 L 161.64 254.50 L 161.90 489.00 C162.05,617.97 162.57,726.75 163.05,730.71 C163.54,734.68 164.63,739.57 165.47,741.58 C166.31,743.60 167.00,746.48 167.00,748.00 C167.00,752.53 173.92,767.91 179.71,776.24 C181.52,778.85 183.00,781.36 183.00,781.81 C183.00,782.27 186.16,785.90 190.02,789.88 C193.93,793.91 196.74,797.60 196.37,798.21 C196.34,798.26 196.31,798.31 196.29,798.35 ZM 427.62 781.71 C427.37,781.53 427.16,781.37 426.98,781.19 L 477.21 780.71 C530.28,780.21 531.95,780.07 546.20,775.12 C562.68,769.40 574.74,756.21 578.04,740.29 C578.69,737.18 579.04,730.33 578.82,725.07 C578.34,713.80 575.68,706.86 569.06,699.68 C567.60,698.10 565.58,696.44 563.32,694.91 C563.37,694.87 563.42,694.83 563.48,694.78 C564.80,693.58 569.28,696.90 572.91,701.76 C576.15,706.11 579.29,714.12 580.26,720.54 C581.21,726.75 579.24,743.40 576.91,749.00 C574.33,755.17 568.26,763.28 566.86,762.42 C566.36,762.11 566.07,762.45 566.23,763.18 C566.38,763.90 565.90,764.38 565.18,764.23 C564.45,764.07 564.12,764.39 564.45,764.92 C565.01,765.82 554.77,774.17 552.50,774.67 C551.95,774.79 546.78,776.29 541.00,778.02 C532.31,780.61 529.29,781.08 523.50,780.71 C519.49,780.45 517.35,780.60 518.50,781.06 C519.60,781.50 500.92,781.90 477.00,781.94 C453.08,781.99 432.60,782.27 431.50,782.56 C430.40,782.86 428.65,782.47 427.62,781.71 ZM 563.15 694.79 C559.80,692.54 555.94,690.56 552.50,689.44 C550.91,688.92 551.52,688.45 555.50,687.11 C573.92,680.95 585.68,660.68 582.10,641.26 C579.68,628.12 572.84,618.97 560.92,612.96 C547.32,606.09 544.34,605.75 494.89,605.25 L 450.66 604.80 C453.77,604.03 463.82,603.96 496.75,604.24 C536.69,604.57 543.20,604.84 548.00,606.35 C565.77,611.96 573.40,617.60 579.46,629.59 C583.34,637.25 583.42,637.66 583.42,647.96 C583.41,657.42 583.11,659.20 580.45,665.32 C577.16,672.92 570.99,679.92 563.04,685.07 C560.27,686.87 558.00,688.60 558.01,688.92 C558.01,689.24 559.39,690.28 561.07,691.24 C563.02,692.35 563.87,693.44 563.40,694.24 C563.27,694.48 563.18,694.66 563.15,694.79 ZM 427.43 778.84 L 426.93 781.13 C425.83,779.91 426.12,777.65 428.06,764.23 C429.34,755.37 430.64,748.28 430.96,748.48 C431.28,748.67 431.37,747.07 431.16,744.92 C430.96,742.78 431.27,738.20 431.86,734.76 C432.45,731.32 433.41,723.55 433.99,717.50 C434.58,711.45 435.69,702.45 436.47,697.50 C437.25,692.55 438.35,684.67 438.90,680.00 C442.85,647.03 445.67,626.76 446.68,624.00 C446.99,623.17 447.42,618.96 447.66,614.64 C447.93,609.56 448.60,606.26 449.54,605.32 C449.69,605.17 449.92,605.03 450.27,604.92 L 449.68 608.65 C448.65,615.17 441.36,671.25 435.54,717.50 C429.47,765.65 428.19,775.32 427.43,778.84 ZM 680.12 548.07 C666.53,544.88 649.41,541.87 632.50,539.85 C615.57,537.84 564.06,538.11 546.50,540.32 C531.43,542.21 520.26,543.84 510.53,545.62 C511.35,545.36 511.93,545.07 512.10,544.82 C512.42,544.30 514.96,543.79 517.74,543.69 C520.52,543.59 522.59,543.18 522.35,542.78 C521.77,541.81 523.81,541.47 543.00,539.33 C555.75,537.92 567.18,537.50 593.29,537.50 C614.67,537.50 627.34,537.87 627.79,538.50 C628.18,539.05 632.55,539.54 637.50,539.59 C645.79,539.67 667.78,543.42 669.00,544.95 C669.28,545.30 673.04,546.40 677.37,547.40 C678.23,547.60 679.15,547.83 680.12,548.07 ZM 575.10 550.34 C575.16,550.31 575.21,550.27 575.26,550.23 C577.02,548.82 599.62,547.00 615.39,547.00 C622.73,547.00 635.44,547.69 643.62,548.52 C658.77,550.08 690.66,555.54 692.49,556.90 C692.97,557.26 694.07,557.71 695.42,558.15 C694.01,557.72 692.92,557.30 692.50,556.97 C691.95,556.55 690.37,556.33 688.98,556.49 C685.28,556.91 672.61,554.34 672.19,553.08 C671.99,552.47 670.79,552.27 669.41,552.61 C666.61,553.31 659.73,552.24 660.38,551.20 C660.87,550.40 660.45,550.38 617.34,549.30 C599.66,548.86 585.40,548.84 585.65,549.25 C586.09,549.95 583.28,550.25 575.10,550.34 ZM 529.50 421.56 C532.67,421.19 537.52,420.28 542.01,419.28 C539.16,419.99 536.16,420.73 533.50,421.36 C516.72,425.31 507.87,425.48 494.50,422.13 C492.30,421.57 485.55,419.96 479.50,418.55 C471.24,416.62 462.01,414.23 450.94,411.15 C456.88,412.65 460.27,413.21 462.25,413.12 C464.32,413.03 467.33,413.64 468.95,414.48 C470.57,415.31 472.85,416.00 474.01,416.00 C475.17,416.00 475.90,416.35 475.63,416.79 C475.37,417.22 475.90,417.63 476.82,417.71 C477.75,417.79 481.20,418.61 484.50,419.53 C487.80,420.45 494.77,421.61 500.00,422.11 C505.23,422.60 509.90,423.13 510.38,423.29 C511.17,423.56 516.13,423.10 529.50,421.56 ZM 423.60 571.62 C411.38,577.16 379.14,593.55 377.59,595.04 C377.36,595.27 377.25,595.55 377.25,595.85 C377.17,595.39 377.20,594.93 377.36,594.50 C377.68,593.66 379.12,592.53 380.54,591.98 C381.97,591.44 384.67,589.83 386.55,588.39 C388.43,586.96 391.05,585.73 392.39,585.65 C393.72,585.57 394.62,585.19 394.38,584.81 C393.86,583.97 412.91,574.58 413.64,575.31 C413.91,575.58 418.27,573.95 423.60,571.62 ZM 375.96 544.00 C378.66,544.00 381.16,543.55 381.50,543.00 C381.16,543.55 379.84,544.00 378.57,544.00 C375.83,544.00 345.33,551.50 331.68,555.37 C334.76,554.34 337.84,553.16 339.00,552.54 C341.17,551.38 352.40,548.33 366.76,544.99 C369.11,544.45 373.25,544.00 375.96,544.00 ZM 216.37 812.33 C209.19,808.48 202.60,803.92 196.67,798.70 C196.73,798.66 196.80,798.62 196.87,798.58 C197.56,798.16 200.11,799.58 202.99,801.99 C205.71,804.27 209.86,807.17 212.22,808.44 C214.57,809.72 216.39,811.24 216.26,811.84 C216.21,812.06 216.26,812.22 216.37,812.33 ZM 707.69 560.68 C710.13,561.24 713.41,562.10 716.71,563.06 C721.95,564.59 726.48,565.70 727.46,565.72 C727.23,565.96 726.10,566.00 723.77,566.00 C718.80,566.00 713.72,564.27 714.58,562.87 C714.87,562.40 714.40,562.29 713.55,562.62 C711.24,563.50 706.79,562.15 707.61,560.82 C707.64,560.77 707.67,560.72 707.69,560.68 ZM 563.65 413.49 C564.55,413.13 565.22,412.75 565.48,412.40 C566.04,411.66 569.65,410.62 573.50,410.09 C577.37,409.55 586.34,407.48 594.24,405.43 C587.81,407.18 579.32,409.43 569.00,412.09 C567.30,412.53 565.48,413.01 563.65,413.49 ZM 222.19 815.23 C220.28,814.35 218.42,813.42 216.59,812.45 C216.84,812.52 217.22,812.47 217.68,812.29 C218.65,811.92 219.08,812.07 218.71,812.65 C218.37,813.20 219.08,813.62 220.30,813.57 C221.62,813.53 222.39,814.03 222.23,814.82 C222.19,814.98 222.18,815.11 222.19,815.23 ZM 863.50 316.08 L 863.42 258.17 L 863.50 258.50 ZM 682.48 356.50 C682.56,360.25 682.94,364.82 683.33,366.84 C683.31,366.73 683.28,366.65 683.26,366.61 C682.89,366.01 682.52,361.92 682.44,357.51 C682.36,353.10 682.05,346.12 681.75,342.00 C681.23,334.90 680.60,325.22 680.03,315.60 C680.62,325.52 681.26,335.34 681.77,342.00 C682.08,346.12 682.40,352.65 682.48,356.50 ZM 718.91 561.28 C718.33,561.10 717.86,561.00 717.57,561.00 C716.77,561.00 715.86,560.58 715.55,560.08 C715.23,559.57 712.62,558.41 709.74,557.51 C708.23,557.03 706.62,556.49 705.27,556.00 C706.31,556.37 707.46,556.75 708.50,557.06 C710.70,557.72 713.62,558.83 715.00,559.54 C715.92,560.01 717.43,560.68 718.91,561.28 ZM 551.49 416.77 C551.68,416.71 551.84,416.65 552.00,416.59 C553.85,415.88 557.23,414.98 559.68,414.54 C556.42,415.41 553.44,416.23 551.49,416.77 ZM 569.00 551.20 C569.00,551.64 567.99,552.00 566.75,552.01 C567.99,552.00 569.00,551.54 569.00,550.98 C569.00,550.44 569.89,550.26 571.15,550.51 C569.86,550.66 569.00,550.92 569.00,551.20 ZM 347.13 271.93 C347.67,266.47 348.13,265.07 348.79,263.78 C349.01,263.33 349.26,262.90 349.54,262.33 C348.41,264.64 347.77,266.11 347.13,271.93 ZM 324.30 557.74 C321.46,558.76 317.70,560.04 314.90,560.93 C317.47,560.01 320.64,558.93 324.30,557.74 ZM 504.86 546.71 C501.32,547.42 497.91,548.16 494.50,548.97 C489.55,550.13 483.48,551.52 481.02,552.06 C483.48,551.52 489.55,550.12 494.50,548.93 C498.05,548.09 502.07,547.23 504.86,546.71 ZM 702.44 559.86 C703.04,559.95 703.56,560.00 703.97,560.00 C704.38,560.00 705.28,560.15 706.53,560.42 C705.64,560.41 704.14,560.19 702.44,559.86 ZM 307.27 564.27 C306.76,564.69 305.67,565.00 304.61,565.00 C303.36,565.00 302.00,565.34 301.58,565.75 C302.00,565.34 303.29,565.00 304.47,565.00 C305.46,565.00 306.61,564.69 307.27,564.27 ZM 853.06 225.50 C848.01,215.15 841.30,206.13 832.09,196.99 C841.32,206.15 848.04,215.18 853.06,225.50 ZM 378.46 597.90 C379.19,598.54 380.18,599.00 381.15,599.00 C380.14,599.00 379.17,598.56 378.46,597.90 ZM 725.83 564.29 C725.08,563.88 724.17,563.43 723.22,562.99 C724.20,563.42 725.13,563.89 725.83,564.29 Z" fill="rgb(30,85,172)"/>
<path d="M 469.53 480.89 C471.78,481.44 490.80,481.78 513.50,481.68 C545.70,481.53 553.99,481.23 556.00,480.10 C557.38,479.33 563.45,473.66 569.50,467.51 C588.96,447.71 601.67,441.78 673.29,419.04 C678.68,417.33 683.55,416.22 684.12,416.58 C684.69,416.93 684.79,405.75 684.61,393.88 C685.79,433.16 686.85,501.65 686.02,508.33 C684.99,516.65 682.72,520.63 676.68,524.69 C669.90,529.26 665.57,529.59 645.71,527.01 C552.49,514.90 458.57,514.89 379.16,526.97 C365.13,529.11 360.63,529.30 355.17,528.01 C350.61,526.93 345.00,522.20 342.00,516.91 L 339.50 512.50 L 339.50 483.50 C339.50,460.27 339.75,437.91 340.26,415.68 L 364.11 423.44 C421.86,442.25 435.73,449.22 455.03,469.09 C463.47,477.79 466.34,480.13 469.53,480.89 ZM 376.12 479.96 C387.04,482.41 396.47,474.59 396.47,463.09 C396.47,452.43 390.09,446.01 379.50,446.01 C368.46,446.01 362.38,452.79 363.21,464.18 C363.80,472.42 368.60,478.27 376.12,479.96 ZM 634.71 476.91 C637.90,479.54 639.28,480.00 643.98,480.00 C652.71,479.99 658.87,475.38 660.92,467.34 C662.22,462.24 661.42,457.68 658.34,452.78 C655.29,447.90 651.38,446.00 644.42,446.00 C634.21,446.00 628.00,452.44 628.00,463.01 C628.00,469.19 629.76,472.83 634.71,476.91 ZM 604.38 479.56 C609.63,481.85 612.85,481.16 617.75,476.70 C619.54,475.07 620.00,473.57 620.00,469.38 C620.00,461.87 617.26,458.85 609.85,458.24 C604.75,457.81 604.15,458.00 601.19,460.97 C598.51,463.65 598.00,464.90 598.00,468.85 C598.00,474.35 599.96,477.64 604.38,479.56 ZM 409.31 479.58 C414.14,481.75 418.95,480.67 422.75,476.55 C426.40,472.60 426.94,468.72 424.51,464.01 C419.45,454.23 404.79,456.70 403.33,467.59 C402.62,472.84 405.03,477.66 409.31,479.58 ZM 345.35 298.00 C344.98,304.55 344.55,312.45 344.03,322.04 C343.49,332.02 342.95,342.37 342.45,352.14 C342.66,347.61 342.88,343.05 343.11,338.46 C344.04,321.15 344.76,308.01 345.35,298.00 Z" fill="rgb(251,186,19)"/>
<path d="M 0.00 512.00 L 0.00 0.00 L 512.00 0.00 L 1024.00 0.00 L 1024.00 512.00 L 1024.00 1024.00 L 512.00 1024.00 L 0.00 1024.00 L 0.00 512.00 ZM 773.50 824.15 C798.88,818.34 815.49,809.42 832.47,792.50 C848.49,776.52 856.47,761.61 861.64,738.00 C863.42,729.85 863.50,719.91 863.50,494.00 L 863.50 258.50 L 861.28 249.20 C856.13,227.56 847.69,212.47 832.09,196.99 C823.47,188.44 819.64,185.47 811.50,181.00 C806.00,177.98 797.29,174.05 792.15,172.25 C773.22,165.66 786.50,165.93 507.00,166.32 C329.53,166.56 252.56,166.99 247.98,167.77 C238.64,169.34 233.30,171.13 220.71,176.89 C216.97,178.60 213.48,180.00 212.96,180.00 C212.43,180.00 212.00,180.45 212.00,181.00 C212.00,181.55 211.38,182.00 210.62,182.00 C209.86,182.00 205.59,185.15 201.14,189.00 C196.68,192.85 192.59,196.00 192.04,196.00 C191.50,196.00 190.36,197.35 189.50,198.99 C188.65,200.64 186.85,202.71 185.49,203.60 C184.13,204.49 183.25,205.60 183.54,206.06 C183.82,206.52 183.14,207.39 182.03,207.99 C180.91,208.58 180.00,209.66 180.00,210.38 C180.00,211.10 179.10,212.50 178.00,213.50 C176.90,214.50 176.00,216.14 176.00,217.15 C176.00,218.17 175.64,219.00 175.21,219.00 C173.65,219.00 164.54,240.45 165.47,241.95 C165.75,242.40 164.99,245.41 163.80,248.63 L 161.62 254.50 L 161.25 490.24 C160.93,701.66 161.05,726.93 162.47,735.24 C170.94,784.88 206.39,818.37 258.00,825.50 C265.66,826.56 315.44,826.78 515.50,826.63 L 763.50 826.43 L 773.50 824.15 ZM 427.43 778.84 C428.19,775.32 429.47,765.65 435.54,717.50 C441.36,671.25 448.65,615.17 449.68,608.65 L 450.29 604.80 L 494.89 605.25 C544.34,605.75 547.32,606.09 560.92,612.96 C572.84,618.97 579.68,628.12 582.10,641.26 C585.68,660.68 573.92,680.95 555.50,687.11 C551.52,688.45 550.91,688.92 552.50,689.44 C558.34,691.35 565.41,695.72 569.06,699.68 C575.68,706.86 578.34,713.80 578.82,725.07 C579.04,730.33 578.69,737.18 578.04,740.29 C574.74,756.21 562.68,769.40 546.20,775.12 C531.95,780.07 530.28,780.21 477.21,780.71 L 426.92 781.19 L 427.43 778.84 ZM 520.50 744.88 C526.58,743.19 532.64,736.61 533.52,730.73 C534.97,721.04 531.59,714.05 523.50,710.00 C518.78,707.64 517.43,707.48 499.25,707.16 C483.81,706.88 479.92,707.08 479.56,708.16 C478.98,709.87 475.00,741.08 475.00,743.89 C475.00,745.97 475.31,746.00 495.75,745.99 C507.86,745.99 518.16,745.53 520.50,744.88 ZM 521.91 673.92 C524.67,673.33 528.41,671.87 530.21,670.67 C534.04,668.12 538.00,660.92 538.00,656.50 C538.00,651.42 534.01,644.88 529.50,642.56 C525.89,640.70 523.71,640.50 507.01,640.50 L 488.52 640.50 L 486.48 657.75 L 484.43 675.00 L 500.67 675.00 C509.60,675.00 519.16,674.52 521.91,673.92 ZM 415.00 610.89 C411.98,609.76 408.33,608.48 406.89,608.03 C405.45,607.58 403.20,606.64 401.89,605.93 C400.58,605.22 398.57,604.53 397.43,604.41 C396.29,604.28 392.59,603.01 389.21,601.59 C385.83,600.16 382.20,599.00 381.15,599.00 C378.80,599.00 376.33,596.26 377.59,595.04 C379.18,593.51 413.05,576.31 424.50,571.22 C438.60,564.95 468.88,554.68 481.02,552.06 C483.48,551.52 489.55,550.13 494.50,548.97 C508.57,545.65 522.65,543.31 546.50,540.32 C564.06,538.11 615.57,537.84 632.50,539.85 C661.55,543.31 691.20,549.70 702.50,554.93 C703.60,555.44 706.86,556.60 709.74,557.51 C712.62,558.41 715.23,559.57 715.55,560.08 C715.86,560.58 716.77,561.00 717.57,561.00 C719.40,561.00 728.23,565.11 727.64,565.69 C727.41,565.93 722.49,564.74 716.71,563.06 C710.93,561.38 705.20,560.00 703.97,560.00 C701.38,560.00 693.97,558.00 692.49,556.90 C690.66,555.54 658.77,550.08 643.62,548.52 C635.44,547.69 622.73,547.00 615.39,547.00 C599.62,547.00 577.02,548.82 575.26,550.23 C574.58,550.78 572.90,550.94 571.51,550.59 C570.06,550.23 569.00,550.39 569.00,550.98 C569.00,551.54 567.99,552.00 566.75,552.01 C565.51,552.01 557.75,553.42 549.50,555.14 C541.25,556.85 533.60,558.33 532.50,558.41 C531.40,558.49 529.48,559.13 528.23,559.82 C526.98,560.52 525.47,560.79 524.87,560.42 C524.27,560.05 523.49,560.18 523.14,560.72 C522.34,561.95 509.12,566.40 506.75,566.24 C505.79,566.18 505.00,566.51 505.00,566.98 C505.00,567.46 503.31,568.36 501.25,569.00 C499.19,569.63 496.83,570.41 496.00,570.73 C495.17,571.05 493.94,571.22 493.25,571.11 C492.56,571.00 492.00,571.32 492.00,571.82 C492.00,572.83 483.02,576.58 481.59,576.16 C481.09,576.01 480.42,576.28 480.09,576.76 C479.77,577.23 474.10,580.45 467.50,583.91 C460.90,587.37 450.40,593.64 444.16,597.85 C437.92,602.06 431.62,606.17 430.16,607.00 C428.70,607.83 427.14,609.06 426.70,609.75 C426.26,610.44 425.25,611.00 424.45,611.00 C423.65,611.00 423.00,611.45 423.00,612.00 C423.00,613.44 421.22,613.19 415.00,610.89 ZM 348.50 587.73 C345.20,586.63 342.35,585.34 342.16,584.86 C341.98,584.38 341.47,584.21 341.04,584.48 C340.16,585.02 302.80,573.89 296.67,571.27 L 292.84 569.63 L 296.84 568.06 C299.04,567.20 301.17,566.16 301.58,565.75 C302.00,565.34 303.36,565.00 304.61,565.00 C305.86,565.00 307.15,564.57 307.48,564.04 C307.81,563.51 310.87,562.19 314.29,561.12 C317.70,560.05 322.98,558.25 326.00,557.12 C332.62,554.65 375.31,544.00 378.57,544.00 C379.84,544.00 381.16,543.55 381.50,543.00 C381.84,542.45 383.55,542.00 385.31,542.00 C387.06,542.00 392.33,541.36 397.00,540.58 C414.61,537.64 442.54,534.65 466.00,533.20 C487.57,531.86 552.86,531.76 550.70,533.06 C549.71,533.66 544.99,534.23 540.20,534.33 C535.42,534.42 531.24,534.85 530.93,535.27 C530.61,535.70 526.90,536.15 522.68,536.27 C518.46,536.40 515.01,536.76 515.00,537.07 C515.00,537.72 496.56,540.56 493.50,540.38 C492.40,540.32 491.23,540.69 490.90,541.20 C490.57,541.72 488.20,542.22 485.65,542.32 C483.09,542.42 481.00,542.79 481.00,543.15 C481.00,543.51 479.09,544.03 476.75,544.31 C471.38,544.96 467.06,545.91 464.50,547.01 C460.45,548.75 451.60,550.87 450.70,550.32 C450.19,550.00 449.49,550.17 449.14,550.69 C448.34,551.88 415.95,562.55 414.25,562.18 C413.56,562.03 413.00,562.31 413.00,562.79 C413.00,563.73 394.02,571.60 392.70,571.20 C392.25,571.07 391.21,571.65 390.38,572.48 C389.54,573.32 388.33,574.00 387.68,574.01 C387.03,574.02 379.98,577.39 372.00,581.51 C364.02,585.62 356.83,589.16 356.00,589.36 C355.17,589.56 351.80,588.83 348.50,587.73 ZM 469.53 480.89 C466.34,480.13 463.47,477.79 455.03,469.09 C435.73,449.22 421.86,442.25 364.11,423.44 L 339.72 415.50 L 340.40 396.00 C340.78,385.27 342.41,351.99 344.03,322.04 C346.93,268.45 347.02,267.49 349.54,262.32 C358.41,244.20 391.00,233.59 455.50,227.83 C474.03,226.18 546.73,226.15 566.50,227.79 C606.02,231.06 634.73,236.39 650.61,243.39 C662.64,248.70 670.32,254.83 673.43,261.63 C674.84,264.72 676.00,268.00 676.00,268.92 C676.00,269.84 676.43,271.03 676.95,271.55 C677.48,272.08 678.14,278.35 678.43,285.50 C678.93,297.98 680.60,326.28 681.75,342.00 C682.05,346.12 682.36,353.10 682.44,357.51 C682.52,361.92 682.90,366.03 683.28,366.64 C684.47,368.58 685.30,417.30 684.12,416.58 C683.55,416.22 678.68,417.33 673.29,419.04 C601.67,441.78 588.96,447.71 569.50,467.51 C563.45,473.66 557.38,479.33 556.00,480.10 C553.99,481.23 545.70,481.53 513.50,481.68 C490.80,481.78 471.78,481.44 469.53,480.89 ZM 533.50 421.36 C539.55,419.93 547.42,417.93 551.00,416.91 C554.58,415.90 562.67,413.73 569.00,412.09 C593.29,405.82 607.42,401.90 608.44,401.15 C609.02,400.73 611.97,399.80 615.00,399.09 C620.78,397.74 635.04,393.28 643.50,390.18 C652.78,386.78 655.58,384.92 657.91,380.65 L 660.16 376.50 L 658.54 347.50 C657.65,331.55 656.65,313.44 656.31,307.25 C655.97,301.06 655.34,296.00 654.91,296.00 C654.49,296.00 653.86,295.13 653.52,294.07 C652.13,289.68 636.35,285.41 613.00,283.09 C606.67,282.47 598.45,281.51 594.73,280.98 C591.01,280.44 582.91,280.00 576.72,280.00 C570.54,280.00 563.91,279.53 561.99,278.96 C558.46,277.91 468.07,277.53 461.00,278.53 C459.08,278.81 450.75,279.49 442.50,280.04 C420.44,281.53 395.93,284.26 389.00,286.01 C386.52,286.63 382.36,287.53 379.74,288.01 C377.12,288.49 374.27,289.59 373.41,290.45 C372.55,291.31 371.04,292.45 370.05,292.97 C367.89,294.13 367.15,301.84 366.43,330.50 C366.16,340.95 365.49,350.92 364.93,352.66 C363.66,356.59 363.86,380.00 365.17,380.00 C365.69,380.00 365.86,380.41 365.55,380.92 C364.24,383.04 372.69,388.13 382.50,391.14 C388.00,392.82 394.52,394.88 397.00,395.71 C399.48,396.54 404.65,398.04 408.50,399.05 C412.35,400.06 422.25,402.86 430.50,405.28 C451.39,411.42 466.63,415.54 479.50,418.55 C485.55,419.96 492.30,421.57 494.50,422.13 C507.87,425.48 516.72,425.31 533.50,421.36 ZM 376.12 479.96 C368.60,478.27 363.80,472.42 363.21,464.18 C362.38,452.79 368.46,446.01 379.50,446.01 C390.09,446.01 396.47,452.43 396.47,463.09 C396.47,474.59 387.04,482.41 376.12,479.96 ZM 409.31 479.58 C405.03,477.66 402.62,472.84 403.33,467.59 C404.79,456.70 419.45,454.23 424.51,464.01 C426.94,468.72 426.40,472.60 422.75,476.55 C418.95,480.67 414.14,481.75 409.31,479.58 ZM 604.38 479.56 C599.96,477.64 598.00,474.35 598.00,468.85 C598.00,464.90 598.51,463.65 601.19,460.97 C604.15,458.00 604.75,457.81 609.85,458.24 C617.26,458.85 620.00,461.87 620.00,469.38 C620.00,473.57 619.54,475.07 617.75,476.70 C612.85,481.16 609.63,481.85 604.38,479.56 ZM 634.71 476.91 C629.76,472.83 628.00,469.19 628.00,463.01 C628.00,452.44 634.21,446.00 644.42,446.00 C651.38,446.00 655.29,447.90 658.34,452.78 C661.42,457.68 662.22,462.24 660.92,467.34 C658.87,475.38 652.71,479.99 643.98,480.00 C639.28,480.00 637.90,479.54 634.71,476.91 ZM 697.13 356.08 C695.80,355.26 695.55,352.56 693.48,316.00 C692.65,301.42 691.76,288.26 691.51,286.75 C691.07,284.13 691.24,284.00 695.08,284.00 C699.87,284.00 712.48,286.72 716.00,288.52 C719.56,290.33 721.54,293.03 721.85,296.50 C721.99,298.15 722.57,300.96 723.13,302.74 C723.69,304.52 724.13,309.25 724.10,313.24 C724.07,317.23 724.09,325.37 724.15,331.32 L 724.25 342.15 L 720.87 345.66 C715.59,351.17 700.14,357.94 697.13,356.08 ZM 319.50 354.69 C317.85,354.02 313.65,352.00 310.18,350.19 C300.81,345.31 300.59,344.50 301.33,318.15 C302.03,293.46 302.47,291.98 310.29,288.22 C315.09,285.92 330.46,283.13 331.68,284.35 C332.69,285.35 331.98,318.31 330.93,319.58 C330.42,320.20 329.89,328.53 329.75,338.10 L 329.50 355.50 L 326.00 355.70 C324.08,355.81 321.15,355.35 319.50,354.69 Z" fill="rgb(254,254,254)"/>
</g>
</svg>